IKResults
version=1
nRows=7
nColumns=40
inDegrees=yes

Units are S.I. units (second, meters, Newtons, ...)
Angles are in degrees.

endheader
time	pelvis_tilt	pelvis_list	pelvis_rotation	pelvis_tx	pelvis_ty	pelvis_tz	hip_flexion_r	hip_adduction_r	hip_rotation_r	knee_angle_r	knee_angle_r_beta	ankle_angle_r	subtalar_angle_r	mtp_angle_r	hip_flexion_l	hip_adduction_l	hip_rotation_l	knee_angle_l	knee_angle_l_beta	ankle_angle_l	subtalar_angle_l	mtp_angle_l	lumbar_extension	lumbar_bending	lumbar_rotation	arm_flex_r	arm_add_r	arm_rot_r	elbow_flex_r	pro_sup_r	wrist_flex_r	wrist_dev_r	arm_flex_l	arm_add_l	arm_rot_l	elbow_flex_l	pro_sup_l	wrist_flex_l	wrist_dev_l
      1.17000000	     18.24337947	     -2.09526703	      2.98420425	      0.23701387	      0.94312898	      0.98606249	      0.67244867	     -2.07093491	    -16.96521226	    -28.43022893	     -0.49620110	      4.74680158	    -11.70799851	     13.34576984	    -24.81703598	      0.76557458	     11.38795953	    -14.00648892	     -0.24445935	     14.23736814	      3.08319432	     -5.29063725	    -24.49564236	      2.93787650	     -1.04472648	    -10.72294234	     -9.86003245	     -2.35815960	     17.70710054	     89.95437384	      0.00000000	      0.00000000	     13.50732023	     11.83993590	      1.52830519	     31.53561669	     89.95437384	      0.00000000	      0.00000000
      1.18000000	     18.13977981	     -2.17520310	      3.09385124	      0.24691387	      0.94175797	      0.98596090	      0.99798069	     -2.19273706	    -18.71690015	    -25.58039967	     -0.44646220	      2.77558822	    -10.11292460	      5.11300821	    -25.50257115	      0.78042040	     10.75401218	    -13.75959988	     -0.24015032	     14.53061748	      4.26968361	     -6.72015507	    -24.41987682	      3.10053935	     -1.03971124	    -11.08564146	     -9.80725184	     -2.73518482	     17.20206882	     89.95437384	      0.00000000	      0.00000000	     14.23158814	     11.91551395	      1.33754762	     32.58408222	     89.95437384	      0.00000000	      0.00000000
      1.19000000	     17.90373659	     -2.46557263	      3.16664915	      0.25666135	      0.94024922	      0.98625761	      1.49858989	     -1.94695332	    -20.18869628	    -22.95985471	     -0.40072506	      0.98599968	     -7.96218784	      4.68841814	    -25.87983740	      1.14787388	     10.90286555	    -13.81067241	     -0.24104171	     14.85381803	      4.13545174	     -6.70350179	    -24.22029608	      3.45377034	     -0.97276919	    -11.36676279	     -9.78777524	     -2.99961528	     16.72809278	     89.95437384	      0.00000000	      0.00000000	     14.89596817	     11.93725537	      1.33633678	     33.61046652	     89.95437384	      0.00000000	      0.00000000
      1.20000000	     17.38182434	     -2.62206823	      2.85457190	      0.26620110	      0.93837409	      0.98701667	      2.57243631	     -1.85153322	    -21.01841983	    -21.10142939	     -0.36828942	     -0.80080817	     -5.92000618	      4.40694307	    -26.02035724	      1.18348360	     11.15297185	    -13.82198386	     -0.24123913	     15.18195121	      4.07547165	     -6.65963588	    -23.75478558	      3.52165101	     -0.64858394	    -11.58489180	     -9.80090558	     -3.04167840	     16.24654394	     89.95437384	      0.00000000	      0.00000000	     15.47253382	     11.94769390	      1.32944191	     34.60895079	     89.95437384	      0.00000000	      0.00000000
      1.21000000	     17.53812280	     -3.11761348	      3.25152175	      0.27653165	      0.93748199	      0.98712828	      2.50859561	     -1.47665564	    -23.64831641	    -18.98213147	     -0.33130069	     -0.93278404	     -1.71624779	      2.58442384	    -26.81887359	      1.99361061	     11.55877192	    -13.93858509	     -0.24327420	     15.18977088	      3.57013515	     -6.76781232	    -23.89080920	      4.19276767	     -0.78833758	    -11.86993121	     -9.79119295	     -3.35424951	     15.96054342	     89.95437384	      0.00000000	      0.00000000	     15.94456781	     11.83085368	      1.80997657	     35.73026812	     89.95437384	      0.00000000	      0.00000000
      1.22000000	     17.20892463	     -3.24321209	      3.22112380	      0.28677245	      0.93585054	      0.98749350	      3.40716044	     -1.79589345	    -26.32784782	    -17.99783496	     -0.31412148	     -0.38497765	      3.65470994	     -1.54498353	    -27.11502124	      2.26514083	     12.33144190	    -14.07846428	     -0.24571556	     15.21816668	      2.15119311	     -7.01554982	    -23.53226496	      4.33843973	     -0.73885000	    -12.12483049	     -9.84483099	     -3.22936025	     15.65439263	     89.95437384	      0.00000000	      0.00000000	     16.29890093	     11.82697931	      1.86832708	     36.81768481	     89.95437384	      0.00000000	      0.00000000
      1.23000000	     16.96607732	     -3.51900774	      3.22170942	      0.29727146	      0.93444004	      0.98824039	      3.89343711	     -1.52901056	    -28.04888136	    -16.27520083	     -0.28405584	     -0.30970188	      6.68301102	    -11.33882154	    -27.56571203	      2.66107199	     12.62652927	    -14.11439517	     -0.24634267	     15.22950706	      1.98244816	     -7.50271154	    -23.22527756	      4.62391748	     -0.69524354	    -12.37605898	     -9.88716171	     -3.17844906	     15.44464101	     89.95437384	      0.00000000	      0.00000000	     16.56548146	     11.81998460	      2.08432429	     37.86856238	     89.95437384	      0.00000000	      0.00000000
